<svg width="16" height="16" viewBox="0 0 16 16" fill="none" xmlns="http://www.w3.org/2000/svg">
<g clip-path="url(#clip0_1112_59423)">
<path d="M12.16 11.44H4C3.73 11.44 3.48 11.33 3.29 11.14C3.1 10.95 3 10.7 3 10.43C3 10.25 3.05 10.08 3.14 9.93C3.43 9.42 3.79 8.45 3.79 6.72V6.31C3.79 3.94 5.71 2 8.09 2C10.47 2.02 12.39 3.97 12.39 6.35V6.72C12.39 8.45 12.74 9.42 13.04 9.93C13.17 10.16 13.21 10.43 13.14 10.69C13.07 10.95 12.91 11.17 12.68 11.3C12.53 11.39 12.35 11.44 12.17 11.44H12.16ZM4.3 10.26H11.86C11.53 9.58 11.19 8.46 11.19 6.72V6.35C11.19 4.61 9.8 3.19 8.1 3.18C6.36 3.18 4.96 4.58 4.96 6.31V6.72C4.96 8.47 4.62 9.58 4.29 10.26H4.3Z" fill="#C4C4C6"/>
<path d="M8.07625 14C6.88625 14 5.90625 13.03 5.90625 11.83H7.08625C7.08625 12.37 7.52625 12.81 8.06625 12.81C8.60625 12.81 9.04625 12.37 9.04625 11.83H10.2262C10.2262 13.02 9.25625 14 8.05625 14H8.07625Z" fill="#C4C4C6"/>
</g>
<defs>
<clipPath id="clip0_1112_59423">
<rect width="10.17" height="12" fill="white" transform="translate(3 2)"/>
</clipPath>
</defs>
</svg>
