<svg width="24" height="24" viewBox="0 0 24 24" fill="none" xmlns="http://www.w3.org/2000/svg">
<g clip-path="url(#clip0_460_23633)">
<path d="M20 11.5556C20.003 12.7288 19.7289 13.8861 19.2 14.9333C18.5728 16.1882 17.6086 17.2437 16.4155 17.9816C15.2223 18.7195 13.8473 19.1106 12.4444 19.1111C11.2712 19.1142 10.1139 18.8401 9.06666 18.3111L4 20L5.68889 14.9333C5.15994 13.8861 4.88583 12.7288 4.88889 11.5556C4.88943 10.1527 5.28054 8.77766 6.01841 7.58451C6.75629 6.39135 7.81178 5.42719 9.06666 4.80002C10.1139 4.27107 11.2712 3.99697 12.4444 4.00003H12.8889C14.7416 4.10224 16.4916 4.88426 17.8037 6.19634C19.1157 7.50843 19.8978 9.25837 20 11.1111V11.5556Z" stroke="#D8D8D9" stroke-width="1.2" stroke-linecap="round" stroke-linejoin="round"/>
</g>
<defs>
<clipPath id="clip0_460_23633">
<rect width="24" height="24" fill="white"/>
</clipPath>
</defs>
</svg>
