<svg width="32" height="32" viewBox="0 0 32 32" fill="none" xmlns="http://www.w3.org/2000/svg">
    <g clip-path="url(#clip0_2991_88834)">
        <g filter="url(#filter0_d_2991_88834)">
            <path d="M25.2481 12.0814V12.2281C25.2108 13.6386 24.6366 15.141 23.4527 16.3366L23.4526 16.3367C22.5256 17.2733 20.5793 19.2333 18.8402 20.9784C17.9706 21.851 17.1535 22.6693 16.5417 23.2789C16.3362 23.4837 16.1543 23.6645 16.0016 23.8157C15.8488 23.6644 15.6667 23.4835 15.4611 23.2786C14.8491 22.6689 14.0318 21.8504 13.1622 20.9777C11.4232 19.2324 9.47732 17.2724 8.55131 16.3367L8.55079 16.3362C7.32204 15.097 6.75 13.5315 6.75 12.0814C6.75 10.894 7.13262 9.80812 7.82018 9.02949C8.49719 8.26281 9.50686 7.75 10.8701 7.75C11.698 7.75 12.5718 8.0387 13.3972 8.48784C14.2184 8.93471 14.9468 9.51623 15.4697 10.0391L15.9995 10.5689L16.5299 10.0395C17.054 9.51628 17.7826 8.93466 18.6036 8.48779C19.4288 8.03866 20.3021 7.75 21.1299 7.75C22.494 7.75 23.503 8.26319 24.1793 9.0299C24.8662 9.80868 25.2481 10.8946 25.2481 12.0814Z"
                  stroke="#C4C4C6"
                  stroke-width="1.5"
                  shape-rendering="auto"/>
        </g>
    </g>
    <defs>
        <!-- ✅ filter 범위 확장 -->
        <filter id="filter0_d_2991_88834" x="-20%" y="-20%" width="140%" height="140%" filterUnits="userSpaceOnUse" color-interpolation-filters="sRGB">
            <feFlood flood-opacity="0" result="BackgroundImageFix"/>
            <feColorMatrix in="SourceAlpha" type="matrix" values="0 0 0 0 0 0 0 0 0 0 0 0 0 0 0 0 0 0 127 0" result="hardAlpha"/>
            <feOffset dy="1"/>
            <!-- ✅ stdDeviation 값 조정 -->
            <feGaussianBlur stdDeviation="1.5"/>
            <feComposite in2="hardAlpha" operator="out"/>
            <feColorMatrix type="matrix" values="0 0 0 0 0 0 0 0 0 0 0 0 0 0 0 0 0 0 0.08 0"/>
            <feBlend mode="normal" in2="BackgroundImageFix" result="effect1_dropShadow_2991_88834"/>
            <feBlend mode="normal" in="SourceGraphic" in2="effect1_dropShadow_2991_88834" result="shape"/>
        </filter>
        <clipPath id="clip0_2991_88834">
            <rect width="32" height="32" fill="white"/>
        </clipPath>
    </defs>
</svg>