<svg width="20" height="20" viewBox="0 0 20 20" fill="none" xmlns="http://www.w3.org/2000/svg">
<mask id="mask0_1129_106868" style="mask-type:luminance" maskUnits="userSpaceOnUse" x="1" y="1" width="18" height="18">
<path d="M19 1H1V19H19V1Z" fill="white"/>
</mask>
<g mask="url(#mask0_1129_106868)">
<path d="M9.9944 18.1818C14.5132 18.1818 18.1763 14.5186 18.1763 9.9999C18.1763 5.48116 14.5132 1.81799 9.9944 1.81799C5.47566 1.81799 1.8125 5.48116 1.8125 9.9999C1.8125 14.5186 5.47566 18.1818 9.9944 18.1818Z" stroke="#6D6D72" stroke-width="1.5" stroke-linecap="round" stroke-linejoin="round"/>
<path d="M9.99367 15.498C9.85079 15.4956 9.70981 15.465 9.57877 15.408C9.44616 15.3486 9.32447 15.2674 9.21877 15.1677C9.01838 14.9619 8.90625 14.686 8.90625 14.3987C8.90625 14.1114 9.01838 13.8355 9.21877 13.6296C9.42853 13.4326 9.70547 13.323 9.99322 13.323C10.281 13.323 10.5579 13.4326 10.7677 13.6296C10.866 13.7298 10.9439 13.8481 10.9972 13.9779C11.0594 14.1075 11.0902 14.25 11.0872 14.3937C11.0912 14.5407 11.0604 14.6866 10.9972 14.8194C10.9439 14.9495 10.866 15.0681 10.7677 15.1686C10.6619 15.2683 10.5402 15.3495 10.4077 15.4089C10.2766 15.4659 10.1356 15.4965 9.99277 15.4989" fill="#6D6D72"/>
<mask id="mask1_1129_106868" style="mask-type:luminance" maskUnits="userSpaceOnUse" x="8" y="13" width="4" height="3">
<path d="M10.0015 15.498C9.8586 15.4956 9.71762 15.465 9.58658 15.408C9.45397 15.3486 9.33228 15.2674 9.22658 15.1677C9.02619 14.9619 8.91406 14.686 8.91406 14.3987C8.91406 14.1114 9.02619 13.8355 9.22658 13.6296C9.43634 13.4326 9.71328 13.323 10.001 13.323C10.2888 13.323 10.5657 13.4326 10.7755 13.6296C10.8738 13.7298 10.9517 13.8481 11.005 13.9779C11.0672 14.1075 11.098 14.25 11.095 14.3937C11.099 14.5407 11.0682 14.6866 11.005 14.8194C10.9517 14.9495 10.8738 15.0681 10.7755 15.1686C10.6697 15.2683 10.5481 15.3495 10.4155 15.4089C10.2844 15.4659 10.1434 15.4965 10.0006 15.4989" fill="white"/>
</mask>
<g mask="url(#mask1_1129_106868)">
<path d="M9.58814 15.4081L9.22028 16.2296L9.22916 16.2334L9.58814 15.4081ZM9.22814 15.1678L8.58326 15.7956L8.59667 15.8093L8.61065 15.8226L9.22814 15.1678ZM9.22814 13.6297L8.61204 12.9736L8.59733 12.9875L8.58326 13.0019L9.22814 13.6297ZM10.777 13.6297L11.4193 12.9992L11.4065 12.9861L11.3932 12.9736L10.777 13.6297ZM11.0065 13.978L10.1738 14.3194L10.1838 14.3437L10.1951 14.3675L11.0065 13.978ZM11.0966 14.3938L10.1967 14.3747L10.1963 14.3967L10.1969 14.4187L11.0966 14.3938ZM11.0065 14.8195L10.1939 14.4326L10.1831 14.4553L10.1736 14.4785L11.0065 14.8195ZM10.777 15.1687L11.3945 15.8235L11.4078 15.811L11.4205 15.798L10.777 15.1687ZM10.4171 15.409L10.7761 16.2343L10.7849 16.2304L10.4171 15.409ZM10.0183 14.5982C9.99378 14.5979 9.9696 14.5925 9.94713 14.5828L9.22916 16.2334C9.46876 16.3376 9.72656 16.3935 9.9878 16.3979L10.0183 14.5982ZM9.95598 14.5867C9.91534 14.5685 9.87803 14.5436 9.84563 14.5131L8.61065 15.8226C8.78966 15.9914 8.99573 16.129 9.22028 16.2296L9.95598 14.5867ZM9.87303 14.54C9.83622 14.5022 9.81563 14.4515 9.81563 14.3988H8.01562C8.01562 14.9205 8.21929 15.4217 8.58326 15.7956L9.87303 14.54ZM9.81563 14.3988C9.81563 14.3459 9.83622 14.2953 9.87303 14.2575L8.58326 13.0019C8.21929 13.3757 8.01562 13.877 8.01562 14.3988H9.81563ZM9.84425 14.2857C9.88714 14.2455 9.94376 14.2231 10.0026 14.2231V12.4231C9.48592 12.4231 8.98866 12.6199 8.61204 12.9736L9.84425 14.2857ZM10.0026 14.2231C10.0615 14.2231 10.1181 14.2455 10.1609 14.2857L11.3932 12.9736C11.0165 12.6199 10.5193 12.4231 10.0026 12.4231V14.2231ZM10.1348 14.2602C10.1515 14.2772 10.1648 14.2973 10.1738 14.3194L11.8392 13.6366C11.7419 13.399 11.5992 13.1825 11.4193 12.9992L10.1348 14.2602ZM10.1951 14.3675C10.1963 14.3697 10.1968 14.3722 10.1967 14.3747L11.9964 14.4128C12.0024 14.1279 11.9413 13.8455 11.8179 13.5886L10.1951 14.3675ZM10.1969 14.4187C10.197 14.4235 10.196 14.4283 10.1939 14.4326L11.8192 15.2063C11.9435 14.9452 12.0042 14.6582 11.9962 14.369L10.1969 14.4187ZM10.1736 14.4785C10.1643 14.5012 10.1507 14.5219 10.1336 14.5394L11.4205 15.798C11.5999 15.6145 11.7422 15.398 11.8395 15.1604L10.1736 14.4785ZM10.1596 14.514C10.1272 14.5445 10.0898 14.5694 10.0492 14.5876L10.7849 16.2304C11.0094 16.1298 11.2155 15.9922 11.3945 15.8235L10.1596 14.514ZM10.058 14.5837C10.0355 14.5934 10.0114 14.5988 9.9869 14.5991L10.0174 16.3988C10.2786 16.3944 10.5364 16.3385 10.7761 16.2343L10.058 14.5837Z" fill="#6D6D72"/>
</g>
<path d="M9.9847 12.393C9.76772 12.393 9.55964 12.3068 9.40622 12.1534C9.25279 12 9.1666 11.7919 9.1666 11.5749V10.962C9.1666 10.017 9.9514 9.57333 10.5238 9.25204C11.2798 8.82543 11.7082 8.54284 11.7082 7.71394C11.6937 7.26647 11.5058 6.84218 11.1842 6.53076C10.8625 6.21935 10.4324 6.04524 9.9847 6.04524C9.537 6.04524 9.10686 6.21935 8.78522 6.53076C8.46358 6.84218 8.27566 7.26647 8.2612 7.71394C8.2612 7.93091 8.17501 8.13899 8.02158 8.29242C7.86816 8.44584 7.66007 8.53203 7.4431 8.53203C7.22612 8.53203 7.01804 8.44584 6.86462 8.29242C6.71119 8.13899 6.625 7.93091 6.625 7.71394C6.63943 6.83229 6.99979 5.99163 7.62837 5.37326C8.25695 4.75488 9.10338 4.40833 9.98515 4.40833C10.867 4.40833 11.7133 4.75488 12.342 5.37326C12.9705 5.99163 13.3309 6.83229 13.3453 7.71394C13.338 8.35133 13.1428 8.97241 12.7842 9.49943C12.4256 10.0265 11.9195 10.436 11.3293 10.6767C11.1325 10.7734 10.9488 10.8943 10.7821 11.0367L10.8037 11.5767C10.8032 11.7935 10.7167 12.0013 10.5631 12.1543C10.4096 12.3074 10.2015 12.3933 9.9847 12.393Z" fill="#6D6D72"/>
<mask id="mask2_1129_106868" style="mask-type:luminance" maskUnits="userSpaceOnUse" x="6" y="4" width="8" height="9">
<path d="M9.99251 12.3931C9.77553 12.3931 9.56745 12.3069 9.41403 12.1536C9.26061 12.0001 9.17441 11.792 9.17441 11.575V10.9621C9.17441 10.0171 9.95921 9.57346 10.5316 9.25216C11.2876 8.82556 11.716 8.54296 11.716 7.71406C11.7015 7.2666 11.5136 6.8423 11.192 6.53088C10.8704 6.21947 10.4402 6.04536 9.99251 6.04536C9.54482 6.04536 9.11467 6.21947 8.79303 6.53088C8.4714 6.8423 8.28348 7.2666 8.26901 7.71406C8.26901 7.93103 8.18282 8.13911 8.0294 8.29254C7.87597 8.44596 7.66788 8.53216 7.45091 8.53216C7.23393 8.53216 7.02585 8.44596 6.87243 8.29254C6.71901 8.13911 6.63281 7.93103 6.63281 7.71406C6.64724 6.83241 7.0076 5.99175 7.63618 5.37338C8.26476 4.755 9.1112 4.40845 9.99296 4.40845C10.8748 4.40845 11.7211 4.755 12.3498 5.37338C12.9783 5.99175 13.3387 6.83241 13.3531 7.71406C13.3458 8.35146 13.1506 8.97254 12.792 9.49955C12.4334 10.0266 11.9273 10.4361 11.3371 10.6768C11.1404 10.7735 10.9566 10.8945 10.7899 11.0368L10.8115 11.5768C10.811 11.7937 10.7245 12.0015 10.5709 12.1545C10.4174 12.3076 10.2093 12.3934 9.99251 12.3931Z" fill="white"/>
</mask>
<g mask="url(#mask2_1129_106868)">
<path d="M10.5332 9.25201L10.9737 10.0368L10.9755 10.0358L10.5332 9.25201ZM11.7176 7.71391H12.6176V7.69937L12.6171 7.68483L11.7176 7.71391ZM8.27058 7.71391L7.37104 7.68483L7.37058 7.69937V7.71391H8.27058ZM6.63438 7.71391L5.73449 7.69918L5.73438 7.70654V7.71391H6.63438ZM13.3547 7.71391L14.2547 7.72423L14.2547 7.71171L14.2546 7.69918L13.3547 7.71391ZM11.3387 10.6767L10.9987 9.84337L10.9698 9.85515L10.9418 9.86892L11.3387 10.6767ZM10.7915 11.0367L10.2067 10.3525L9.87474 10.6363L9.8922 11.0727L10.7915 11.0367ZM10.8131 11.5767L11.7131 11.5787L11.7131 11.5597L11.7123 11.5407L10.8131 11.5767ZM9.99407 11.493C10.0158 11.493 10.0366 11.5016 10.052 11.517L8.77919 12.7898C9.1014 13.112 9.5384 13.293 9.99407 13.293V11.493ZM10.052 11.517C10.0673 11.5323 10.076 11.5532 10.076 11.5749H8.27598C8.27598 12.0306 8.45698 12.4676 8.77919 12.7898L10.052 11.517ZM10.076 11.5749V10.962H8.27598V11.5749H10.076ZM10.076 10.962C10.076 10.7762 10.1401 10.6465 10.278 10.5078C10.4437 10.3412 10.6721 10.2061 10.9737 10.0368L10.0926 8.46719C9.60594 8.74039 8.27598 9.4191 8.27598 10.962H10.076ZM10.9755 10.0358C11.3302 9.83567 11.7643 9.58992 12.0826 9.23059C12.4532 8.8122 12.6176 8.31053 12.6176 7.71391H10.8176C10.8176 7.84385 10.8008 7.91366 10.7886 7.94878C10.778 7.97928 10.7639 8.00463 10.7352 8.03705C10.6502 8.13289 10.4922 8.24174 10.0909 8.46819L10.9755 10.0358ZM12.6171 7.68483C12.5951 7.00384 12.3091 6.35809 11.8196 5.88415L10.5675 7.17733C10.7213 7.32621 10.8112 7.52906 10.818 7.74298L12.6171 7.68483ZM11.8196 5.88415C11.3301 5.4102 10.6754 5.14521 9.99407 5.14521V6.94521C10.2081 6.94521 10.4137 7.02845 10.5675 7.17733L11.8196 5.88415ZM9.99407 5.14521C9.31272 5.14521 8.65807 5.4102 8.16856 5.88415L9.42062 7.17733C9.5744 7.02845 9.78004 6.94521 9.99407 6.94521V5.14521ZM8.16856 5.88415C7.67905 6.35809 7.39305 7.00384 7.37104 7.68483L9.1701 7.74298C9.17702 7.52906 9.26686 7.32621 9.42062 7.17733L8.16856 5.88415ZM7.37058 7.71391C7.37058 7.69218 7.3792 7.67135 7.39456 7.656L8.66735 8.92878C8.98956 8.60658 9.17057 8.16957 9.17057 7.71391H7.37058ZM7.39456 7.656C7.40991 7.64063 7.43075 7.63201 7.45248 7.63201V9.43201C7.90815 9.43201 8.34515 9.25099 8.66735 8.92878L7.39456 7.656ZM7.45248 7.63201C7.47419 7.63201 7.49503 7.64063 7.51038 7.656L6.23759 8.92878C6.5598 9.25099 6.99681 9.43201 7.45248 9.43201V7.63201ZM7.51038 7.656C7.52574 7.67135 7.53438 7.69218 7.53438 7.71391H5.73438C5.73438 8.16957 5.91538 8.60658 6.23759 8.92878L7.51038 7.656ZM7.53425 7.72863C7.54482 7.0831 7.80867 6.46758 8.26891 6.01482L7.00658 4.73165C6.20966 5.51563 5.75279 6.58142 5.73449 7.69918L7.53425 7.72863ZM8.26891 6.01482C8.72915 5.56205 9.3489 5.3083 9.99453 5.3083V3.5083C8.87662 3.5083 7.80349 3.94766 7.00658 4.73165L8.26891 6.01482ZM9.99453 5.3083C10.6402 5.3083 11.2599 5.56205 11.7202 6.01482L12.9825 4.73165C12.1856 3.94766 11.1124 3.5083 9.99453 3.5083V5.3083ZM11.7202 6.01482C12.1803 6.46758 12.4442 7.0831 12.4548 7.72863L14.2546 7.69918C14.2363 6.58142 13.7794 5.51563 12.9825 4.73165L11.7202 6.01482ZM12.4547 7.70358C12.4494 8.16392 12.3085 8.61248 12.0495 8.9931L13.5376 10.0057C13.9959 9.3323 14.2453 8.5387 14.2547 7.72423L12.4547 7.70358ZM12.0495 8.9931C11.7905 9.37372 11.425 9.66948 10.9987 9.84337L11.6786 11.51C12.4328 11.2024 13.0794 10.6791 13.5376 10.0057L12.0495 8.9931ZM10.9418 9.86892C10.6775 9.99874 10.4306 10.1612 10.2067 10.3525L11.3762 11.7209C11.4856 11.6274 11.6063 11.548 11.7355 11.4845L10.9418 9.86892ZM9.8922 11.0727L9.91379 11.6127L11.7123 11.5407L11.6907 11.0007L9.8922 11.0727ZM9.91308 11.5747C9.91312 11.553 9.92179 11.5322 9.93716 11.5169L11.2079 12.7918C11.5304 12.4703 11.7121 12.034 11.7131 11.5787L9.91308 11.5747ZM9.93716 11.5169C9.95253 11.5016 9.97336 11.493 9.99507 11.493L9.99308 13.293C10.4484 13.2935 10.8853 13.1133 11.2079 12.7918L9.93716 11.5169Z" fill="#6D6D72"/>
</g>
</g>
</svg>
