<svg width="24" height="24" viewBox="0 0 24 24" fill="none" xmlns="http://www.w3.org/2000/svg">
<g clip-path="url(#clip0_949_67838)">
<path fill-rule="evenodd" clip-rule="evenodd" d="M6.66354 12.2C6.12967 12.2 5.69687 12.6328 5.69687 13.1667V19C5.69687 19.5339 6.12967 19.9667 6.66354 19.9667H18.3302C18.8641 19.9667 19.2969 19.5339 19.2969 19V13.1667C19.2969 12.6328 18.8641 12.2 18.3302 12.2H6.66354ZM4.29688 13.1667C4.29688 11.8596 5.35647 10.8 6.66354 10.8H18.3302C19.6373 10.8 20.6969 11.8596 20.6969 13.1667V19C20.6969 20.3071 19.6373 21.3667 18.3302 21.3667H6.66354C5.35647 21.3667 4.29688 20.3071 4.29688 19V13.1667Z" fill="#9D9DA0"/>
<path fill-rule="evenodd" clip-rule="evenodd" d="M12.5516 4.70005C11.6155 4.70005 10.7196 5.06737 10.0603 5.71848C9.4014 6.36929 9.03281 7.25012 9.03281 8.16672V11.5C9.03281 11.8866 8.71941 12.2 8.33281 12.2C7.94621 12.2 7.63281 11.8866 7.63281 11.5V8.16672C7.63281 6.87317 8.15318 5.63439 9.07656 4.7224C9.99966 3.8107 11.2498 3.30005 12.5516 3.30005C13.8533 3.30005 15.1035 3.8107 16.0266 4.7224C16.9499 5.63439 17.4703 6.87317 17.4703 8.16672V11.5C17.4703 11.8866 17.1569 12.2 16.7703 12.2C16.3837 12.2 16.0703 11.8866 16.0703 11.5V8.16672C16.0703 7.25012 15.7017 6.36929 15.0428 5.71848C14.3835 5.06737 13.4876 4.70005 12.5516 4.70005Z" fill="#9D9DA0"/>
<path fill-rule="evenodd" clip-rule="evenodd" d="M12.4969 14.1334C12.8835 14.1334 13.1969 14.4468 13.1969 14.8334V17.2709C13.1969 17.6575 12.8835 17.9709 12.4969 17.9709C12.1103 17.9709 11.7969 17.6575 11.7969 17.2709V14.8334C11.7969 14.4468 12.1103 14.1334 12.4969 14.1334Z" fill="#9D9DA0"/>
</g>
<defs>
<clipPath id="clip0_949_67838">
<rect width="24" height="24" fill="white"/>
</clipPath>
</defs>
</svg>
