<svg width="20" height="20" viewBox="0 0 20 20" fill="none" xmlns="http://www.w3.org/2000/svg">
<g clip-path="url(#clip0_3025_164350)">
<mask id="mask0_3025_164350" style="mask-type:luminance" maskUnits="userSpaceOnUse" x="0" y="0" width="20" height="20">
<path d="M20 0H0V20H20V0Z" fill="white"/>
</mask>
<g mask="url(#mask0_3025_164350)">
<path d="M9.9944 18.1818C14.5132 18.1818 18.1763 14.5186 18.1763 9.9999C18.1763 5.48116 14.5132 1.81799 9.9944 1.81799C5.47566 1.81799 1.8125 5.48116 1.8125 9.9999C1.8125 14.5186 5.47566 18.1818 9.9944 18.1818Z" stroke="#6D6D72" stroke-width="1.5" stroke-linecap="round" stroke-linejoin="round"/>
<path d="M9.99573 14.9303C9.89055 14.9303 9.78639 14.9096 9.68922 14.8693C9.59205 14.8291 9.50378 14.77 9.42944 14.6956C9.35511 14.6212 9.29616 14.5328 9.25599 14.4356C9.21581 14.3384 9.1952 14.2342 9.19531 14.129V9.2367C9.19531 9.02442 9.27964 8.82082 9.42975 8.67072C9.57986 8.52061 9.78345 8.43628 9.99573 8.43628C10.208 8.43628 10.4116 8.52061 10.5617 8.67072C10.7119 8.82082 10.7961 9.02442 10.7961 9.2367V14.129C10.7961 14.3413 10.7119 14.5449 10.5617 14.695C10.4116 14.8451 10.208 14.9294 9.99573 14.9294" fill="#6D6D72"/>
<path d="M9.9891 7.19463C9.7074 7.19031 9.43845 7.07649 9.23923 6.87728C9.04002 6.67806 8.92619 6.40911 8.92188 6.1274C8.92188 5.84436 9.03431 5.57291 9.23446 5.37277C9.4346 5.17263 9.70606 5.06018 9.9891 5.06018C10.2722 5.06018 10.5436 5.17263 10.7438 5.37277C10.9438 5.57291 11.0563 5.84436 11.0563 6.1274C11.052 6.40911 10.9382 6.67806 10.7389 6.87728C10.5398 7.07649 10.2708 7.19031 9.9891 7.19463Z" fill="#6D6D72"/>
</g>
</g>
<defs>
<clipPath id="clip0_3025_164350">
<rect width="20" height="20" fill="white"/>
</clipPath>
</defs>
</svg>
