<svg width="32" height="32" viewBox="0 0 32 32" fill="none" xmlns="http://www.w3.org/2000/svg">
<path fill-rule="evenodd" clip-rule="evenodd" d="M16.299 7.46545L18.9913 10.1578C19.2016 10.368 19.2016 10.709 18.9913 10.9193C18.781 11.1295 18.4401 11.1295 18.2298 10.9193L16.4567 9.14616V17.077C16.4567 17.3744 16.2157 17.6154 15.9183 17.6154C15.6209 17.6154 15.3798 17.3744 15.3798 17.077V9.14616L13.6067 10.9193C13.3964 11.1295 13.0555 11.1295 12.8452 10.9193C12.6349 10.709 12.6349 10.368 12.8452 10.1578L15.5375 7.46545C15.5891 7.41383 15.6486 7.37487 15.7122 7.3486C15.7756 7.32227 15.8453 7.30774 15.9183 7.30774C15.9913 7.30774 16.0609 7.32227 16.1244 7.3486C16.1879 7.37487 16.2474 7.41383 16.299 7.46545Z" fill="#C4C4C6"/>
<path fill-rule="evenodd" clip-rule="evenodd" d="M8.61659 16.8462C8.91397 16.8462 9.15505 17.0873 9.15505 17.3847V22C9.15505 22.4945 9.62748 23 10.3474 23H20.732C21.4519 23 21.9243 22.4945 21.9243 22V17.3847C21.9243 17.0873 22.1654 16.8462 22.4627 16.8462C22.7601 16.8462 23.0012 17.0873 23.0012 17.3847V22C23.0012 23.205 21.9239 24.077 20.732 24.077H10.3474C9.15547 24.077 8.07812 23.205 8.07812 22V17.3847C8.07812 17.0873 8.3192 16.8462 8.61659 16.8462Z" fill="#C4C4C6"/>
</svg>
