<svg width="140" height="24" viewBox="0 0 140 24" fill="none" xmlns="http://www.w3.org/2000/svg">
<path d="M78.5628 15.6054H80.2977V13.2583H78.3061V11.5303H80.9442V9.18598H78.3061V7.33784H80.0712V4.90843H68.7065C68.9193 4.63529 69.1032 4.36559 69.2768 4.09794L66.6003 2.92578C65.901 3.92225 65.0068 4.95304 63.9513 5.9399C63.4278 6.43039 62.8809 6.89531 62.3125 7.33304L64.6719 8.85039C64.9396 8.6548 65.2051 8.44274 65.4769 8.22382V9.18598H62.8567V11.5303H65.4769V13.2583H63.6494V15.6054H65.4316C64.7831 16.7961 63.7043 18.1872 62.9116 18.8611L65.2038 20.4972C66.3265 19.4924 67.3752 18.0993 68.1692 16.4619L66.3979 15.6054H77.8422L76.0057 16.6163C76.9089 17.7397 77.9506 19.1596 78.5587 20.3393L81.0849 19.1424C80.5413 18.0808 79.5147 16.584 78.5628 15.6054ZM75.5274 13.2583H74.8247V11.5303H75.5274V13.2583ZM72.2676 11.5303V13.2583H71.5319V11.5303H72.2676ZM71.5319 9.18598V7.33784H72.2676V9.18598H71.5319ZM75.5274 9.18598H74.8247V7.33784H75.5274V9.18598ZM68.2501 7.33784H68.9687V9.18598H68.2501V7.33784ZM68.2501 11.5303H68.9687V13.2583H68.2501V11.5303Z" fill="white"/>
<path d="M68.5898 16.3978C68.9879 17.231 69.6083 19.5183 69.6124 20.2067L72.3438 19.6412C72.0315 17.9049 71.7446 16.9592 71.081 15.7967L68.5898 16.3978ZM72.2497 16.5502C72.7439 17.3373 73.6257 19.3996 73.7232 20.2245L76.5067 19.5671C76.1279 17.9948 75.6214 16.9592 74.929 15.8495L72.2497 16.5509V16.5502ZM100.834 5.20882H92.3665V5.61715L90.5849 4.07166C89.1616 4.87392 86.9545 5.53205 84.4345 5.8299C84.4016 5.8299 84.3783 5.8347 84.3453 5.83813V19.5945H87.3334V18.6914H91.9081V15.9401H87.3334V12.7434H91.9081V10.1411H87.3334V7.89009C89.3167 7.52294 91.055 6.98353 92.3665 6.33431V20.4963H95.3895V7.84137H97.8087V15.9401H95.8377L96.8493 18.8513H98.3357C99.7151 18.8513 100.834 17.8582 100.834 16.6367L100.834 5.20882ZM116.401 16.3917C116.638 16.1844 116.888 15.9689 117.132 15.7479C117.946 14.9779 118.651 14.1976 119.205 13.4709L118.381 12.7215V5.31107H113.363V3.12598H110.112V5.31176H104.986V17.3641H104.975C104.349 17.4931 103.733 17.6132 103.124 17.7189L103.746 20.593C104.07 20.5272 104.391 20.4537 104.713 20.3823C107.478 19.764 109.994 19.0208 111.977 18.2686L111.968 16.4774C113.808 18.3043 116.398 19.8862 119.286 20.7859L120.873 18.3016C119.143 17.7642 117.634 17.1253 116.401 16.3917ZM115.143 10.8322H108.121V10.2076H115.143V10.8322ZM115.617 13.2725C115.391 13.545 115.147 13.8264 114.88 14.1057C114.674 14.3267 114.46 14.5435 114.247 14.7473C113.806 14.3087 113.426 13.8127 113.117 13.2725H115.617ZM115.143 7.64578V8.28264H108.121V7.64578H115.143ZM108.121 16.6408V13.2725H109.657C110.031 14.1057 110.581 14.9374 111.278 15.7383C110.307 16.0561 109.254 16.356 108.121 16.6408Z" fill="white"/>
<path d="M136.641 4.39258H126.115V11.4166H136.639L136.641 4.39258ZM129.018 6.70807H133.736V9.0064H129.018V6.70807ZM122.777 12.2497V20.5056H125.678V19.9154H127.981V20.5015H130.884V12.2497H122.777ZM125.678 17.5807V14.6867H127.98V17.5807H125.678ZM140 12.2497H131.772V20.5056H134.737V19.9154H137.036V20.5015H140V12.2497ZM134.737 17.5807V14.6867H137.036V17.5807H134.737Z" fill="white"/>
<path d="M53.3256 21.8139H48.2767V1.71292H53.3304L53.3256 21.8139ZM13.4167 7.40488L10.524 21.816L6.98971 21.8139L4.08333 7.40488V21.8139L0 21.7707V1.71292L6.22177 1.70605L8.74794 14.2772L11.2789 1.70605H17.7189V21.816H13.416L13.4167 7.40488ZM33.3372 16.7897C33.3372 20.2595 30.323 22.2751 26.624 22.2751C22.9202 22.2751 19.9054 20.2595 19.9054 16.7876L19.8889 1.70605H24.9413L24.9543 16.7012C24.9543 17.5617 25.7058 18.2604 26.6233 18.2604C27.5395 18.2604 28.2951 17.5624 28.2951 16.7018L28.302 1.70605H33.3571L33.3372 16.7897ZM46.0902 17.4128C46.0902 20.4482 43.459 22.2943 40.2294 22.2943C36.9971 22.2943 34.3734 20.4482 34.3734 17.4128C34.359 16.6565 34.3604 15.542 34.3604 14.4776L38.8569 14.4735V17.4163C38.8569 17.9824 39.3441 18.4422 39.9515 18.4422C40.554 18.4422 41.0502 17.9824 41.0502 17.4163L41.0529 1.70605H46.1053L46.0902 17.4128Z" fill="white"/>
</svg>
