<svg width="22" height="21" viewBox="0 0 22 21" fill="none" xmlns="http://www.w3.org/2000/svg">
<g id="Layer_1" clip-path="url(#clip0_3798_2006)">
<path id="Vector" d="M11 0C4.92416 0 0 3.89239 0 8.69665C0 11.8224 2.0872 14.5631 5.21799 16.0964C4.98833 16.9543 4.38548 19.2086 4.26389 19.6899C4.11529 20.2877 4.48173 20.2809 4.7249 20.1205C4.91403 19.9939 7.73918 18.0722 8.9584 17.243C9.62036 17.341 10.3026 17.3933 11 17.3933C17.0758 17.3933 22 13.5009 22 8.69665C22 3.89239 17.0758 0 11 0Z" fill="#371D1E"/>
<g id="Group">
<g id="Group_2">
<path id="Vector_2" d="M3.32665 7.09578H4.45806C4.45806 7.09578 4.46482 10.2063 4.45806 10.9308C4.45806 11.4593 5.63675 11.4661 5.63506 10.9392L5.64013 7.138C5.64013 7.138 6.02008 7.14138 6.76647 7.14138C7.47065 7.14138 7.47065 6.0353 6.76647 6.03361C5.9728 6.03361 3.32327 6.01166 3.32327 6.01166C2.65963 6.01166 2.66132 7.09747 3.32327 7.09747" fill="#FAE100"/>
<g id="Clip path group">
<mask id="mask0_3798_2006" style="mask-type:luminance" maskUnits="userSpaceOnUse" x="2" y="6" width="6" height="6">
<g id="clippath-1">
<path id="Vector_3" d="M3.32665 7.09578H4.45806C4.45806 7.09578 4.46482 10.2063 4.45806 10.9308C4.45806 11.4593 5.63675 11.4661 5.63506 10.9392L5.64013 7.138C5.64013 7.138 6.02008 7.14138 6.76647 7.14138C7.47065 7.14138 7.47065 6.0353 6.76647 6.03361C5.9728 6.03361 3.32327 6.01166 3.32327 6.01166C2.65963 6.01166 2.66132 7.09747 3.32327 7.09747" fill="white"/>
</g>
</mask>
<g mask="url(#mask0_3798_2006)">
<g id="Group_3">
<path id="Vector_4" d="M7.47069 6.00995H2.65967V11.466H7.47069V6.00995Z" fill="#FAE100"/>
</g>
</g>
</g>
</g>
<g id="Group_4">
<path id="Vector_5" d="M8.74563 7.29674L9.3755 9.27079H8.06171L8.74563 7.29674ZM8.03976 6.37134C7.76113 6.98433 6.75468 9.88209 6.42033 10.6504C6.17885 11.206 7.22076 11.6586 7.46224 11.103L7.68852 10.311H9.76052C9.76052 10.311 9.68959 10.3431 9.96485 11.0692C10.1877 11.6569 11.2634 11.2499 11.0405 10.6623C10.7231 9.82299 9.62205 6.79858 9.42109 6.37134C9.32822 6.17377 8.99724 6.03192 8.67639 6.03192C8.40958 6.03192 8.15121 6.12818 8.04145 6.37134" fill="#FAE100"/>
<g id="Clip path group_2">
<mask id="mask1_3798_2006" style="mask-type:luminance" maskUnits="userSpaceOnUse" x="6" y="6" width="6" height="6">
<g id="clippath-4">
<path id="Vector_6" d="M8.74563 7.29674L9.3755 9.27079H8.06171L8.74563 7.29674ZM8.03976 6.37134C7.76113 6.98433 6.75468 9.88209 6.42033 10.6504C6.17885 11.206 7.22076 11.6586 7.46224 11.103L7.68852 10.311H9.76052C9.76052 10.311 9.68959 10.3431 9.96485 11.0692C10.1877 11.6569 11.2634 11.2499 11.0405 10.6623C10.7231 9.82299 9.62205 6.79858 9.42109 6.37134C9.32822 6.17377 8.99724 6.03192 8.67639 6.03192C8.40958 6.03192 8.15121 6.12818 8.04145 6.37134" fill="white"/>
</g>
</mask>
<g mask="url(#mask1_3798_2006)">
<g id="Group_5">
<path id="Vector_7" d="M11.2634 6.03192H6.17883V11.6603H11.2634V6.03192Z" fill="#FAE100"/>
</g>
</g>
</g>
</g>
<g id="Group_6">
<path id="Vector_8" d="M11.4357 6.55372C11.4373 7.53822 11.4407 10.7129 11.4407 10.7129C11.4407 10.7129 11.3495 11.3445 11.8899 11.3445C12.4303 11.3445 13.6309 11.3394 14.1629 11.3394C14.6948 11.3394 14.6914 10.208 14.1595 10.208C13.6275 10.208 12.6566 10.2029 12.6566 10.2029C12.6566 10.2029 12.6616 7.26803 12.6599 6.55372C12.6599 6.20923 12.3526 6.03699 12.047 6.03699C11.7413 6.03699 11.4323 6.21092 11.434 6.5571" fill="#FAE100"/>
<g id="Clip path group_3">
<mask id="mask2_3798_2006" style="mask-type:luminance" maskUnits="userSpaceOnUse" x="11" y="6" width="4" height="6">
<g id="clippath-7">
<path id="Vector_9" d="M11.4357 6.55372C11.4373 7.53822 11.4407 10.7129 11.4407 10.7129C11.4407 10.7129 11.3495 11.3445 11.8899 11.3445C12.4303 11.3445 13.6309 11.3394 14.1629 11.3394C14.6948 11.3394 14.6914 10.208 14.1595 10.208C13.6275 10.208 12.6566 10.2029 12.6566 10.2029C12.6566 10.2029 12.6616 7.26803 12.6599 6.55372C12.6599 6.20923 12.3526 6.03699 12.047 6.03699C11.7413 6.03699 11.4323 6.21092 11.434 6.5571" fill="white"/>
</g>
</mask>
<g mask="url(#mask2_3798_2006)">
<g id="Group_7">
<path id="Vector_10" d="M14.6965 6.03363H11.3512V11.3428H14.6965V6.03363Z" fill="#FAE100"/>
</g>
</g>
</g>
</g>
<g id="Group_8">
<path id="Vector_11" d="M14.8383 6.39665C14.8502 6.82895 14.8248 10.7332 14.8248 11.0219C14.8248 11.4779 15.9883 11.4779 15.9866 11.0219C15.9866 10.4917 15.9866 9.48523 15.9866 9.48523L16.3277 9.21167L17.8205 11.2482C18.1228 11.6467 19.0718 10.9274 18.7713 10.5288L17.1856 8.44163C17.1856 8.44163 18.2613 7.27814 18.6851 6.85597C18.9334 6.61111 18.1667 5.8377 17.9185 6.08425C17.6787 6.32235 15.9934 8.00933 15.9934 8.00933C15.9934 8.00933 16.0086 6.95054 15.9934 6.36457C15.9883 6.14166 15.7148 6.03528 15.4361 6.03528C15.1372 6.03528 14.8316 6.15855 14.8383 6.39665Z" fill="#FAE100"/>
<g id="Clip path group_4">
<mask id="mask3_3798_2006" style="mask-type:luminance" maskUnits="userSpaceOnUse" x="14" y="6" width="5" height="6">
<g id="clippath-10">
<path id="Vector_12" d="M14.8383 6.39665C14.8502 6.82895 14.8248 10.7332 14.8248 11.0219C14.8248 11.4779 15.9883 11.4779 15.9866 11.0219C15.9866 10.4917 15.9866 9.48523 15.9866 9.48523L16.3277 9.21167L17.8205 11.2482C18.1228 11.6467 19.0718 10.9274 18.7713 10.5288L17.1856 8.44163C17.1856 8.44163 18.2613 7.27814 18.6851 6.85597C18.9334 6.61111 18.1667 5.8377 17.9185 6.08425C17.6787 6.32235 15.9934 8.00933 15.9934 8.00933C15.9934 8.00933 16.0086 6.95054 15.9934 6.36457C15.9883 6.14166 15.7148 6.03528 15.4361 6.03528C15.1372 6.03528 14.8316 6.15855 14.8383 6.39665Z" fill="white"/>
</g>
</mask>
<g mask="url(#mask3_3798_2006)">
<g id="Group_9">
<path id="Vector_13" d="M19.0735 5.83942H14.8248V11.6468H19.0735V5.83942Z" fill="#FAE100"/>
</g>
</g>
</g>
</g>
</g>
</g>
<defs>
<clipPath id="clip0_3798_2006">
<rect width="22" height="20.2117" fill="white"/>
</clipPath>
</defs>
</svg>
